<svg width="365" height="98" viewBox="0 0 365 98" fill="none" xmlns="http://www.w3.org/2000/svg">
<g clip-path="url(#clip0_2_20)">
<path d="M111.664 0.00158691C124.645 12.9825 124.645 34.0608 111.664 47.0417C98.6828 60.0226 77.604 60.0226 64.6229 47.0417L111.664 0.00158691Z" fill="#FFB000"/>
<path d="M9.74628 0.00238037L84.228 74.4826L60.7074 98.0027L9.74628 47.0425C-3.23487 34.0616 -3.23487 12.9833 9.74628 0.00238037Z" fill="#FFB000"/>
<path d="M188.949 75.61H181.143L203.511 23.7912H223.144L195.463 84.1379H174.143L146.462 23.7912H166.497L188.949 75.61Z" fill="#004650"/>
<path d="M258.304 85.5059C251.062 85.5059 244.718 84.1931 239.273 81.5618C233.829 78.9362 229.592 75.2569 226.558 70.5406C223.524 65.8187 222.013 60.2971 222.013 53.9645C222.013 47.632 223.53 42.1103 226.558 37.3885C229.587 32.6667 233.823 28.9929 239.273 26.3672C244.718 23.7415 251.062 22.4232 258.304 22.4232C265.547 22.4232 271.886 23.736 277.336 26.3672C282.78 28.9984 287.017 32.6722 290.051 37.3885C293.079 42.1103 294.596 47.6375 294.596 53.9645C294.596 60.2916 293.079 65.8187 290.051 70.5406C287.017 75.2624 282.78 78.9362 277.336 81.5618C271.891 84.1875 265.547 85.5059 258.304 85.5059ZM258.304 68.8526C261.896 68.8526 264.996 68.2514 267.599 67.0433C270.198 65.8353 272.2 64.1198 273.596 61.8912C274.991 59.6682 275.686 57.0205 275.686 53.9645C275.686 50.9086 274.986 48.2663 273.596 46.0378C272.2 43.8148 270.203 42.0938 267.599 40.8857C264.996 39.6777 261.901 39.0764 258.304 39.0764C254.708 39.0764 251.613 39.6777 249.01 40.8857C246.406 42.0938 244.409 43.8093 243.013 46.0378C241.618 48.2663 240.923 50.9086 240.923 53.9645C240.923 57.0205 241.618 59.6627 243.013 61.8912C244.409 64.1198 246.406 65.8353 249.01 67.0433C251.613 68.2514 254.708 68.8526 258.304 68.8526Z" fill="#004650"/>
<path d="M289.929 23.7912H310.527L331.527 50.6659H323.479L344.397 23.7912H364.994L333.535 63.9433L321.466 64.186L289.924 23.7967L289.929 23.7912ZM318.172 84.1379V54.5272H336.922V84.1379H318.172Z" fill="#004650"/>
</g>
<defs>
<clipPath id="clip0_2_20">
<rect width="365" height="98" fill="white"/>
</clipPath>
</defs>
</svg>