<svg width="879" height="115" viewBox="0 0 879 115" fill="none" xmlns="http://www.w3.org/2000/svg">
<g clip-path="url(#clip0_2_2)">
<path d="M131.418 0.00183105C146.695 15.2345 146.695 39.9693 131.418 55.202C116.14 70.4347 91.3326 70.4347 76.055 55.202L131.418 0.00183105Z" fill="#FFB000"/>
<path d="M11.4704 0.00274658L99.1283 87.403L71.4469 115.003L11.4704 55.2029C-3.80715 39.9702 -3.80715 15.2354 11.4704 0.00274658Z" fill="#FFB000"/>
<path d="M222.374 88.7259H213.188L239.514 27.9182H262.619L230.042 98.7332H204.95L172.372 27.9182H195.952L222.374 88.7259Z" fill="#004650"/>
<path d="M304 100.339C295.476 100.339 288.01 98.798 281.602 95.7104C275.194 92.6292 270.208 88.3117 266.638 82.7772C263.067 77.2363 261.288 70.7568 261.288 63.3258C261.288 55.8947 263.074 49.4152 266.638 43.8743C270.202 38.3334 275.188 34.0223 281.602 30.9411C288.01 27.86 295.476 26.3129 304 26.3129C312.524 26.3129 319.983 27.8535 326.398 30.9411C332.805 34.0288 337.791 38.3398 341.362 43.8743C344.926 49.4152 346.711 55.9012 346.711 63.3258C346.711 70.7503 344.926 77.2363 341.362 82.7772C337.791 88.3182 332.805 92.6292 326.398 95.7104C319.99 98.7915 312.524 100.339 304 100.339ZM304 80.7965C308.226 80.7965 311.875 80.0909 314.939 78.6733C317.997 77.2557 320.353 75.2426 321.996 72.6275C323.638 70.0189 324.456 66.9118 324.456 63.3258C324.456 59.7397 323.632 56.6391 321.996 54.024C320.353 51.4154 318.003 49.3958 314.939 47.9782C311.875 46.5606 308.233 45.855 304 45.855C299.767 45.855 296.125 46.5606 293.061 47.9782C289.996 49.3958 287.646 51.4089 286.004 54.024C284.361 56.6391 283.543 59.7397 283.543 63.3258C283.543 66.9118 284.361 70.0124 286.004 72.6275C287.646 75.2426 289.996 77.2557 293.061 78.6733C296.125 80.0909 299.767 80.7965 304 80.7965Z" fill="#004650"/>
<path d="M341.219 27.9182H365.461L390.176 59.4549H380.704L405.322 27.9182H429.564L392.539 75.0355L378.335 75.3203L341.213 27.9247L341.219 27.9182ZM374.459 98.7332V63.986H396.525V98.7332H374.459Z" fill="#004650"/>
<path d="M430.895 99.7754C428.687 99.7754 426.668 99.2576 424.831 98.2154C422.994 97.1733 421.566 95.7427 420.52 93.9173C419.482 92.0919 418.956 90.0788 418.956 87.8715C418.956 85.6642 419.475 83.5734 420.52 81.7804C421.559 79.9873 423 78.5697 424.831 77.5341C426.662 76.4984 428.681 75.9741 430.895 75.9741C433.109 75.9741 435.205 76.4919 437.004 77.5341C438.802 78.5697 440.224 79.9873 441.263 81.7804C442.301 83.5734 442.827 85.6059 442.827 87.8715C442.827 90.1371 442.308 92.0919 441.263 93.9173C440.224 95.7427 438.802 97.1733 437.004 98.2154C435.205 99.2511 433.167 99.7754 430.895 99.7754Z" fill="#004650"/>
<path d="M484.779 27.9182C492.667 27.9182 499.614 29.4005 505.612 32.3587C511.611 35.3169 516.279 39.4532 519.629 44.774C522.972 50.0948 524.647 56.2766 524.647 63.3257C524.647 70.3749 522.972 76.466 519.629 81.7868C516.286 87.1077 511.611 91.2634 505.612 94.2474C499.614 97.238 492.667 98.7332 484.779 98.7332H454.383V27.9182H484.779ZM463.284 96.3706L457.603 90.8944H485.162C491.226 90.8944 496.524 89.7293 501.074 87.399C505.619 85.0687 509.17 81.8257 511.728 77.6765C514.286 73.5208 515.565 68.7372 515.565 63.3257C515.565 57.9143 514.286 52.9559 511.728 48.8326C509.17 44.7093 505.619 41.4857 501.074 39.1554C496.53 36.8251 491.226 35.66 485.162 35.66H457.603L463.284 30.2809V96.3771V96.3706Z" fill="#004650"/>
<path d="M537.807 27.9182H546.708V98.7332H537.807V27.9182Z" fill="#004650"/>
<path d="M634.208 67.8569C634.143 72.3298 633.273 76.5113 631.605 80.4146C629.93 84.3178 627.567 87.7291 624.503 90.6614C621.438 93.5872 617.744 95.8722 613.421 97.5099C609.097 99.1475 604.247 99.9631 598.885 99.9631C593.204 99.9631 587.978 99.0958 583.213 97.3675C578.448 95.6392 574.312 93.1665 570.806 89.9558C567.301 86.7452 564.606 82.8937 562.711 78.3885C560.815 73.8897 559.867 68.8667 559.867 63.3258C559.867 57.7848 560.828 52.7682 562.756 48.263C564.684 43.7642 567.411 39.9063 570.949 36.6957C574.487 33.485 578.649 31.0188 583.446 29.284C588.244 27.5557 593.548 26.6884 599.359 26.6884C606.305 26.6884 612.44 27.8535 617.777 30.1838C623.113 32.5141 627.418 35.7053 630.703 39.7639C633.981 43.8225 635.942 48.4701 636.571 53.6939H627.482C626.788 49.8554 625.178 46.5023 622.652 43.6412C620.127 40.7802 616.887 38.5599 612.947 36.987C608.999 35.414 604.409 34.6243 599.17 34.6243C593.048 34.6243 587.725 35.7894 583.213 38.1197C578.701 40.45 575.195 43.7513 572.702 48.0364C570.209 52.3151 568.963 57.4159 568.963 63.3322C568.963 69.2486 570.222 74.2846 572.754 78.628C575.279 82.9714 578.844 86.305 583.453 88.6353C588.062 90.9656 593.457 92.1308 599.644 92.1308C605.831 92.1308 610.992 91.0304 615.505 88.8295C620.017 86.6287 623.535 83.6058 626.061 79.7673C628.586 75.9288 629.91 71.5206 630.04 66.5493L634.208 67.8698V67.8569ZM603.15 71.7278V64.6463H637.428V98.7333H630.514L629.664 68.7048L632.124 71.7278H603.143H603.15Z" fill="#004650"/>
<path d="M652.204 27.9182H661.105V98.7332H652.204V27.9182Z" fill="#004650"/>
<path d="M671.051 27.9182H740.939V35.7571H671.051V27.9182ZM701.545 32.1645H710.445V98.7268H701.545V32.171V32.1645Z" fill="#004650"/>
<path d="M775.782 27.9182L810.722 98.7332H801.062L768.199 30.9411H772.932L739.978 98.7332H730.318L765.258 27.9182H775.769H775.782ZM745.198 81.1719V73.6179H795.2V81.1719H745.198Z" fill="#004650"/>
<path d="M829.283 27.9182V94.7653L825.304 90.8944H878.994V98.7332H820.376V27.9182H829.277H829.283Z" fill="#004650"/>
</g>
<defs>
<clipPath id="clip0_2_2">
<rect width="879" height="115" fill="white"/>
</clipPath>
</defs>
</svg>
